<?xml version="1.0" encoding="UTF-8" standalone="no"?><!DOCTYPE svg PUBLIC "-//W3C//DTD SVG 1.1//EN" "http://www.w3.org/Graphics/SVG/1.1/DTD/svg11.dtd"><svg width="100%" height="100%" viewBox="0 0 1434 746" version="1.1" xmlns="http://www.w3.org/2000/svg" xmlns:xlink="http://www.w3.org/1999/xlink" xml:space="preserve" xmlns:serif="http://www.serif.com/" style="fill-rule:evenodd;clip-rule:evenodd;stroke-linejoin:round;stroke-miterlimit:2;"><rect id="Cero-Studio-AI" serif:id="Cero Studio AI" x="2.453" y="2.772" width="1429.167" height="741.667" style="fill:none;"/><g><path d="M247.011,455.682c-53.442,0 -97.752,-17.673 -132.929,-53.019c-35.177,-35.346 -52.766,-79.064 -52.766,-131.153c0,-52.089 17.589,-95.807 52.766,-131.153c35.177,-35.346 79.487,-53.019 132.929,-53.019c32.133,0 61.814,7.61 89.042,22.831c27.228,15.221 48.453,35.854 63.674,61.898l-50.736,29.427c-9.471,-17.589 -23.254,-31.541 -41.35,-41.857c-18.096,-10.316 -38.306,-15.475 -60.63,-15.475c-37.883,0 -68.578,12.008 -92.086,36.023c-23.508,24.015 -35.262,54.457 -35.262,91.325c0,36.868 11.754,67.31 35.262,91.325c23.508,24.015 54.203,36.023 92.086,36.023c22.324,0 42.618,-5.158 60.883,-15.475c18.265,-10.316 31.964,-24.269 41.096,-41.857l50.736,28.92c-14.883,26.045 -35.938,46.762 -63.167,62.152c-27.228,15.39 -57.078,23.085 -89.549,23.085Z" style="fill:#fff;fill-rule:nonzero;"/><path d="M514.606,393.277l157.282,0l0,55.81l-215.629,0l0,-355.153l213.092,0l0,55.81l-154.745,0l0,92.34l142.061,0l0,55.302l-142.061,0l0,95.891Z" style="fill:#fff;fill-rule:nonzero;"/><path d="M927.599,449.086l-75.09,-129.377l-69.001,0l0,129.377l-58.347,0l0,-355.153l142.061,0c31.795,0 58.769,11.077 80.924,33.232c22.155,22.155 33.232,49.13 33.232,80.924c0,22.662 -6.511,43.379 -19.533,62.152c-13.022,18.772 -30.019,32.387 -50.99,40.843l80.671,138.002l-63.928,0Zm-144.091,-300.358l0,118.723l83.715,0c15.559,0 28.751,-5.75 39.574,-17.25c10.824,-11.5 16.236,-25.537 16.236,-42.111c0,-16.574 -5.412,-30.611 -16.236,-42.111c-10.824,-11.5 -24.015,-17.25 -39.574,-17.25l-83.715,0Z" style="fill:#fff;fill-rule:nonzero;"/><circle cx="1194.062" cy="271.288" r="34.247" style="fill:#fff;"/><path d="M1194.062,88.012c101.153,0 183.276,82.123 183.276,183.276c0,101.153 -82.123,183.276 -183.276,183.276c-101.153,0 -183.276,-82.123 -183.276,-183.276c0,-101.153 82.123,-183.276 183.276,-183.276Zm0,58.333c-68.958,0 -124.943,55.985 -124.943,124.943c0,68.958 55.985,124.943 124.943,124.943c68.958,0 124.943,-55.985 124.943,-124.943c0,-68.958 -55.985,-124.943 -124.943,-124.943Z" style="fill:#fff;"/></g><g><path d="M159.449,690.113c-9.292,0 -17.253,-2.202 -23.883,-6.606c-6.63,-4.404 -11.252,-10.478 -13.865,-18.221l8.711,-5.082c1.839,6.291 5.227,11.204 10.163,14.736c4.936,3.533 11.276,5.299 19.019,5.299c7.55,0 13.43,-1.67 17.64,-5.009c4.21,-3.339 6.316,-7.767 6.316,-13.285c0,-5.323 -1.936,-9.34 -5.807,-12.05c-3.872,-2.71 -10.26,-5.517 -19.165,-8.421c-10.55,-3.484 -17.519,-6.291 -20.907,-8.421c-7.743,-4.646 -11.615,-11.373 -11.615,-20.181c0,-8.614 3.001,-15.414 9.002,-20.399c6.001,-4.985 13.406,-7.477 22.213,-7.477c7.937,0 14.809,2.057 20.616,6.17c5.807,4.114 10.115,9.365 12.922,15.753l-8.566,4.791c-4.646,-11.228 -12.97,-16.842 -24.972,-16.842c-6.291,0 -11.373,1.549 -15.245,4.646c-3.872,3.097 -5.807,7.404 -5.807,12.922c0,5.033 1.742,8.808 5.227,11.325c3.484,2.517 9.244,5.082 17.277,7.695c3.678,1.258 6.316,2.154 7.913,2.686c1.597,0.532 3.92,1.403 6.969,2.613c3.049,1.21 5.299,2.275 6.751,3.194c1.452,0.92 3.218,2.178 5.299,3.775c2.081,1.597 3.581,3.194 4.501,4.791c0.92,1.597 1.742,3.533 2.468,5.807c0.726,2.275 1.089,4.719 1.089,7.332c0,8.614 -3.146,15.511 -9.437,20.689c-6.291,5.178 -14.567,7.767 -24.827,7.767Z" style="fill:#fff;fill-rule:nonzero;"/><path d="M339.915,586.741l0,9.582l-31.215,0l0,92.048l-10.163,0l0,-92.048l-31.215,0l0,-9.582l72.593,0Z" style="fill:#fff;fill-rule:nonzero;"/><path d="M486.553,680.241c-6.969,6.582 -16.067,9.873 -27.295,9.873c-11.228,0 -20.326,-3.291 -27.295,-9.873c-6.969,-6.582 -10.453,-15.39 -10.453,-26.424l0,-67.076l10.163,0l0,67.076c0,8.13 2.42,14.567 7.259,19.31c4.84,4.743 11.615,7.114 20.326,7.114c8.711,0 15.487,-2.371 20.326,-7.114c4.84,-4.743 7.259,-11.179 7.259,-19.31l0,-67.076l10.163,0l0,67.076c0,11.034 -3.484,19.842 -10.453,26.424Z" style="fill:#fff;fill-rule:nonzero;"/><path d="M626.513,586.741c13.841,0 25.287,4.912 34.337,14.736c9.05,9.824 13.575,21.851 13.575,36.079c0,14.228 -4.525,26.254 -13.575,36.079c-9.05,9.824 -20.495,14.736 -34.337,14.736l-39.2,0l0,-101.63l39.2,0Zm0,92.048c11.131,0 20.253,-3.968 27.368,-11.905c7.114,-7.937 10.671,-17.713 10.671,-29.328c0,-11.615 -3.557,-21.391 -10.671,-29.328c-7.114,-7.937 -16.237,-11.905 -27.368,-11.905l-29.037,0l0,82.466l29.037,0Z" style="fill:#fff;fill-rule:nonzero;"/><rect x="760.374" y="586.741" width="10.163" height="101.63" style="fill:#fff;fill-rule:nonzero;"/><path d="M946.358,674.869c-10.163,10.163 -22.601,15.245 -37.313,15.245c-14.712,0 -27.15,-5.106 -37.313,-15.317c-10.163,-10.211 -15.245,-22.625 -15.245,-37.24c0,-14.615 5.082,-27.029 15.245,-37.24c10.163,-10.211 22.601,-15.317 37.313,-15.317c14.712,0 27.15,5.106 37.313,15.317c10.163,10.211 15.245,22.625 15.245,37.24c0,14.615 -5.082,27.053 -15.245,37.313Zm-67.512,-6.969c8.13,8.227 18.197,12.341 30.199,12.341c12.002,0 22.068,-4.138 30.199,-12.413c8.13,-8.276 12.196,-18.366 12.196,-30.271c0,-11.905 -4.065,-21.996 -12.196,-30.271c-8.13,-8.276 -18.197,-12.413 -30.199,-12.413c-12.002,0 -22.068,4.138 -30.199,12.413c-8.13,8.276 -12.196,18.366 -12.196,30.271c0,11.905 4.065,22.02 12.196,30.344Z" style="fill:#fff;fill-rule:nonzero;"/><path d="M1051.037,687.5c-1.549,1.549 -3.436,2.323 -5.662,2.323c-2.226,0 -4.114,-0.774 -5.662,-2.323c-1.549,-1.549 -2.323,-3.436 -2.323,-5.662c0,-2.226 0.774,-4.114 2.323,-5.662c1.549,-1.549 3.436,-2.323 5.662,-2.323c2.226,0 4.114,0.774 5.662,2.323c1.549,1.549 2.323,3.436 2.323,5.662c0,2.226 -0.774,4.114 -2.323,5.662Z" style="fill:#fff;fill-rule:nonzero;"/><path d="M1209.871,688.371l-9.437,-24.972l-48.202,0l-9.437,24.972l-10.744,0l39.055,-101.63l10.453,0l39.055,101.63l-10.744,0Zm-54.009,-34.554l40.942,0l-20.471,-54.445l-20.471,54.445Z" style="fill:#fff;fill-rule:nonzero;"/><rect x="1302.209" y="586.741" width="10.163" height="101.63" style="fill:#fff;fill-rule:nonzero;"/></g><rect x="61.072" y="511.106" width="1316.095" height="16.667" style="fill:#fff;"/></svg>